<?xml version="1.0" encoding="UTF-8"?>
<svg id="Capa_2" data-name="Capa 2" xmlns="http://www.w3.org/2000/svg" viewBox="0 0 1106.63 156.13">
  <defs>
    <style>
      .cls-1 {
        fill: #252425;
      }

      .cls-2 {
        fill: #8502bb;
      }
    </style>
  </defs>
  <g id="Capa_1-2" data-name="Capa 1">
    <g>
      <g>
        <path class="cls-1" d="M395.6,53.74h-70.91v-20.07h104.72v20.07l-70.78,52.29h70.78v20.07h-104.72v-20.07l70.91-52.29Z"/>
        <path class="cls-1" d="M436.26,79.97c0-4.65,1.08-9.67,3.25-15.06,2.17-5.39,5.63-10.41,10.38-15.06,4.76-4.65,10.89-8.51,18.4-11.57,7.5-3.07,16.54-4.6,27.11-4.6s19.24,1.56,26.32,4.68c7.08,3.12,12.79,7.11,17.13,11.97,4.33,4.86,7.42,10.23,9.27,16.09,1.85,5.87,2.77,11.6,2.77,17.2h-86.88c.42,3.7,1.52,6.92,3.33,9.67,1.8,2.75,4.09,5.05,6.9,6.9,2.8,1.85,6.02,3.25,9.67,4.2,3.65.95,7.48,1.43,11.49,1.43,7.08,0,12.95-.9,17.6-2.7,4.65-1.79,8.03-4.6,10.15-8.4h27.74c-1.8,4.55-4.28,8.75-7.45,12.6-3.17,3.86-7.06,7.16-11.65,9.91-4.6,2.75-9.94,4.92-16.02,6.5-6.08,1.59-12.87,2.38-20.38,2.38-9.83,0-18.45-1.22-25.84-3.65-7.4-2.43-13.55-5.73-18.47-9.91-4.92-4.18-8.62-9.06-11.1-14.67-2.49-5.6-3.73-11.57-3.73-17.92ZM495.4,53.96c-6.97,0-13.06,1.24-18.23,3.73-5.18,2.49-8.94,6.21-11.26,11.18h57.24c-1.27-2.75-3.12-5.23-5.56-7.45-2.11-1.9-4.94-3.62-8.48-5.15-3.54-1.53-8.11-2.3-13.72-2.3Z"/>
        <path class="cls-1" d="M649.51,74.42c0-2.75-.34-5.36-1.03-7.85-.69-2.48-1.85-4.65-3.49-6.5-1.64-1.85-3.88-3.33-6.74-4.44-2.85-1.11-6.5-1.67-10.94-1.67-11.1,0-19.42,2.01-24.97,6.02-5.55,4.02-8.32,10.68-8.32,19.98v42.49h-29.65V37.32h29.65v13c9.19-11.1,22.73-16.65,40.59-16.65,8.35,0,15.35.9,21.01,2.7,5.65,1.8,10.22,4.44,13.72,7.93,3.49,3.49,5.97,7.77,7.45,12.84s2.22,10.84,2.22,17.28v48.04h-29.49v-48.04Z"/>
        <path class="cls-1" d="M734.98,85.52c0,4.34.18,7.69.55,10.07.37,2.38,1.45,4.12,3.25,5.23,1.8,1.11,4.54,1.77,8.24,1.98,3.7.21,8.93.32,15.69.32v19.34c-9.41,0-17.36-.08-23.86-.24-6.5-.16-11.89-.58-16.17-1.27-4.28-.68-7.59-1.77-9.91-3.25-2.33-1.48-4.04-3.59-5.15-6.34-1.11-2.75-1.77-6.24-1.98-10.46-.21-4.23-.31-9.36-.31-15.38v-31.55h-16.65v-16.65h16.65V.37h29.65v36.94h27.74v16.65h-27.74v31.55Z"/>
        <path class="cls-1" d="M772.08,79.97c0-4.65,1.08-9.67,3.25-15.06,2.17-5.39,5.63-10.41,10.38-15.06,4.76-4.65,10.89-8.51,18.4-11.57,7.5-3.07,16.54-4.6,27.11-4.6s19.24,1.56,26.32,4.68c7.08,3.12,12.79,7.11,17.13,11.97,4.33,4.86,7.42,10.23,9.27,16.09,1.85,5.87,2.77,11.6,2.77,17.2h-86.88c.42,3.7,1.52,6.92,3.33,9.67,1.8,2.75,4.09,5.05,6.9,6.9,2.8,1.85,6.02,3.25,9.67,4.2,3.65.95,7.48,1.43,11.49,1.43,7.08,0,12.95-.9,17.6-2.7,4.65-1.79,8.03-4.6,10.15-8.4h27.74c-1.8,4.55-4.28,8.75-7.45,12.6-3.17,3.86-7.06,7.16-11.65,9.91-4.6,2.75-9.94,4.92-16.02,6.5-6.08,1.59-12.87,2.38-20.38,2.38-9.83,0-18.45-1.22-25.84-3.65-7.4-2.43-13.55-5.73-18.47-9.91-4.92-4.18-8.62-9.06-11.1-14.67-2.49-5.6-3.73-11.57-3.73-17.92ZM831.22,53.96c-6.97,0-13.06,1.24-18.23,3.73-5.18,2.49-8.94,6.21-11.26,11.18h57.24c-1.27-2.75-3.12-5.23-5.56-7.45-2.11-1.9-4.94-3.62-8.48-5.15-3.54-1.53-8.11-2.3-13.72-2.3Z"/>
        <path class="cls-1" d="M900.19,122.46V.37h29.65v122.09h-29.65Z"/>
        <path class="cls-1" d="M947.28,122.46V.37h29.65v122.09h-29.65Z"/>
        <path class="cls-1" d="M1077.14,109.46c-9.19,11.1-22.78,16.65-40.75,16.65-8.35,0-15.36-.9-21.01-2.7-5.66-1.8-10.22-4.44-13.72-7.93-3.49-3.49-5.97-7.74-7.45-12.77-1.48-5.02-2.22-10.75-2.22-17.2v-11.1c0-6.45.74-12.21,2.22-17.28,1.48-5.07,3.96-9.35,7.45-12.84,3.49-3.49,8.06-6.13,13.72-7.93,5.65-1.79,12.66-2.7,21.01-2.7,17.97,0,31.55,5.55,40.75,16.65v-13h29.49v85.14h-29.49v-13ZM1043.84,53.96c-4.44,0-8.09.56-10.94,1.67-2.85,1.11-5.13,2.59-6.81,4.44-1.69,1.85-2.85,4.02-3.49,6.5-.63,2.49-.95,5.1-.95,7.85v11.1c0,2.75.32,5.37.95,7.85.64,2.49,1.8,4.65,3.49,6.5,1.69,1.85,3.96,3.31,6.81,4.36,2.85,1.06,6.5,1.59,10.94,1.59,11,0,19.29-2.14,24.89-6.42,5.6-4.28,8.4-10.75,8.4-19.42,0-9.3-2.8-15.96-8.4-19.98-5.6-4.02-13.9-6.02-24.89-6.02Z"/>
      </g>
      <polygon class="cls-2" points="0 0 154.79 61.06 77.39 139.26 332.61 156.13 193.89 90.52 255.22 24.91 0 0"/>
    </g>
  </g>
</svg>