<?xml version="1.0" encoding="UTF-8"?>
<svg id="Capa_2" data-name="Capa 2" xmlns="http://www.w3.org/2000/svg" viewBox="0 0 617.46 617.46">
  <defs>
    <style>
      .cls-1 {
        fill: #fff;
      }

      .cls-2 {
        fill: #8502bb;
      }
    </style>
  </defs>
  <g id="Capa_1-2" data-name="Capa 1">
    <g>
      <g>
        <rect class="cls-1" x="13.5" y="13.5" width="590.46" height="590.46" rx="76.79" ry="76.79"/>
        <path class="cls-2" d="M527.17,27c34.9,0,63.29,28.39,63.29,63.29v436.87c0,34.9-28.39,63.29-63.29,63.29H90.29c-34.9,0-63.29-28.39-63.29-63.29V90.29c0-34.9,28.39-63.29,63.29-63.29h436.87M527.17,0H90.29C40.42,0,0,40.42,0,90.29v436.87c0,49.87,40.42,90.29,90.29,90.29h436.87c49.87,0,90.29-40.42,90.29-90.29V90.29c0-49.87-40.42-90.29-90.29-90.29h0Z"/>
      </g>
      <polygon class="cls-2" points="55.64 189.93 291.2 282.85 173.42 401.85 561.82 427.53 350.71 327.68 444.03 227.83 55.64 189.93"/>
    </g>
  </g>
</svg>